<?xml version="1.0" standalone="no"?><!DOCTYPE svg PUBLIC "-//W3C//DTD SVG 1.1//EN" "http://www.w3.org/Graphics/SVG/1.1/DTD/svg11.dtd"><svg t="1672062668728" class="icon" viewBox="0 0 1143 1024" version="1.1" xmlns="http://www.w3.org/2000/svg" p-id="3336" xmlns:xlink="http://www.w3.org/1999/xlink" width="223.2421875" height="200"><path d="M840.870698 8.239628c-80.634047 0-153.790512 31.672558-207.967256 83.134512a24.957023 24.957023 0 0 0-9.287442 19.33693 25.099907 25.099907 0 0 0 42.984186 17.598511l0.047628 0.023814c45.246512-43.341395 106.61507-69.989209 174.222884-69.989209 139.240186 0 252.094512 112.87814 252.094511 252.094512 0 67.631628-26.671628 128.952558-69.989209 174.246697l-451.322047 451.750698-451.560186-451.750698a251.165767 251.165767 0 0 1-70.013023-174.246697C50.080744 171.222326 162.958884 58.344186 302.19907 58.344186c66.917209 0 127.690419 26.171535 172.841674 68.72707l150.599442 150.456558a24.909395 24.909395 0 0 0 35.244651-35.244651l-149.14679-149.265861 0.119069-0.095255A301.127442 301.127442 0 0 0 302.19907 8.239628C135.263256 8.239628 0 143.550512 0 310.438698c0 81.443721 32.267907 155.314605 84.658605 209.658046l486.995348 486.828651 487.042977-487.138232A301.103628 301.103628 0 0 0 1143.069767 310.462512C1143.069767 143.526698 1007.782698 8.239628 840.870698 8.239628" fill="#050101" p-id="3337"></path></svg>